<?xml version="1.0" encoding="utf-8"?>
<svg viewBox="0 0.0001 754.8755 244.0002" xmlns="http://www.w3.org/2000/svg">
  <path fill-rule="evenodd" d="M 382.17 0.051 C 359.411 0.434 337.039 1.969 314.169 4.721 C 243.096 13.269 170.066 33.463 101.088 63.638 C 73.008 75.922 45.944 89.727 23.763 103.082 C 19.468 105.666 0 118.303 0 118.506 C 0 118.622 19.06 130.868 26.224 135.354 C 37.462 142.389 50.831 150.259 62.779 156.873 C 140.661 199.981 221.27 227.3 303.171 238.343 C 360.323 246.051 418.272 245.881 475.374 237.842 C 508.797 233.136 542.86 225.56 575.507 215.572 C 627.243 199.746 677.242 177.437 719.439 151.353 C 731.608 143.832 737.022 140.123 748.373 131.529 C 754.325 127.022 755.067 126.416 754.841 126.257 C 754.7 126.157 750.843 123.273 746.27 119.851 C 741.696 116.426 736.102 112.287 733.841 110.652 C 710.202 93.567 685.871 78.462 660.765 65.289 C 582.434 24.185 497.675 2.427 407.099 0.172 C 400.571 0.008 388.214 -0.052 382.17 0.051" style="" transform="matrix(1, 0, 0, 1, 0, -1.1368683772161603e-13)"/>
</svg>
